<svg width="20" height="18" viewBox="0 0 20 18" fill="none" xmlns="http://www.w3.org/2000/svg">
<path opacity="0.54" fill-rule="evenodd" clip-rule="evenodd" d="M2 2H5L7 0H13L15 2H18C19.1046 2 20 2.89543 20 4V16C20 17.1046 19.1046 18 18 18H2C0.89543 18 0 17.1046 0 16V4C0 2.89543 0.89543 2 2 2ZM10 5C7.23858 5 5 7.23858 5 10C5 12.7614 7.23858 15 10 15C12.7614 15 15 12.7614 15 10C15 7.23858 12.7614 5 10 5ZM13 10C13 8.34315 11.6569 7 10 7C8.34315 7 7 8.34315 7 10C7 11.6569 8.34315 13 10 13C11.6569 13 13 11.6569 13 10Z" fill="#1A1A1A"/>
</svg>
