<svg width="228" height="25" viewBox="0 0 228 25" fill="none" xmlns="http://www.w3.org/2000/svg">
<path fill-rule="evenodd" clip-rule="evenodd" d="M180.576 23.4615V24.5104H185.391V23.4615H183.465V3.70669L193.747 24.8251H195.158V1.43353H197.014V0.420056H192.13V1.43353H194.057V15.0001L186.973 0.420056H180.576V1.43353H182.364V23.4615H180.576ZM178.444 23.4615H176.759V1.43353H178.444V0.420056H170.19V1.43353H171.841V23.4615H170.19V24.5104H178.444V23.4615ZM202.62 16.2239L204.649 8.67161L204.718 8.42686L206.678 16.2239L204.649 16.2239H202.62ZM202.277 17.3423H204.649L206.953 17.3423L208.501 23.4615H206.781V24.5104H214.554V23.4615H213.316L207.332 0.420056H205.921L204.649 4.93044L199.456 23.4615H197.875V24.5104H202.723V23.4615H200.591L202.277 17.3423ZM147.047 23.4615V24.5104H151.414V23.4615H149.763V2.44847L154.818 24.5104H155.988L161.558 3.04237V23.4615H159.736V24.5104H167.714V23.4615H166.27V1.43353H167.714V0.420056H161.146L157.26 15.3498L154.027 0.420056H147.047V1.43353H148.662V23.4615H147.047ZM216.032 17.2378V24.5104H216.823L217.751 23.2862C218.474 23.8111 219.196 24.2307 219.884 24.5104C220.571 24.7896 221.294 24.9295 221.982 24.9295C223.736 24.9295 225.18 24.2307 226.315 22.8666C227.415 21.5035 228 19.7553 228 17.5875C228 15.8742 227.656 14.4057 226.968 13.1116C226.315 11.8534 225.249 10.6995 223.804 9.68557C223.626 9.57051 223.426 9.43226 223.192 9.27083C222.928 9.08889 222.621 8.87749 222.256 8.63665C219.609 6.81899 218.267 5.28057 218.267 3.95144C218.267 3.1123 218.577 2.37805 219.196 1.81814C219.815 1.22423 220.606 0.910041 221.5 0.910041C222.738 0.910041 223.804 1.39905 224.629 2.37805C225.49 3.35657 226.142 4.79058 226.52 6.67817H227.313V0.315164H226.52L225.764 1.53843C225.076 1.01396 224.389 0.629842 223.736 0.385092C223.082 0.140828 222.394 0 221.672 0C220.021 0 218.679 0.594877 217.614 1.81814C216.548 3.00741 216.032 4.5808 216.032 6.46887C216.032 8.11218 216.376 9.54572 217.098 10.7345C217.821 11.9233 219.23 13.2869 221.328 14.7908C223.151 16.0486 224.32 17.0625 224.802 17.7623C225.283 18.4961 225.524 19.2653 225.524 20.1744C225.524 21.2587 225.214 22.1328 224.527 22.8321C223.873 23.5319 223.014 23.881 221.982 23.881C220.571 23.881 219.437 23.2862 218.542 22.1678C217.649 21.014 217.064 19.3707 216.823 17.2378H216.032ZM17.332 24.545V17.2724H18.123C18.3637 19.4057 18.9488 21.0486 19.8425 22.2029C20.7371 23.3562 21.8715 23.9161 23.2819 23.9161C24.3136 23.9161 25.1729 23.566 25.8268 22.8667C26.5146 22.1674 26.8585 21.2938 26.8585 20.2094C26.8585 19.3358 26.6177 18.5311 26.1019 17.8323C25.6209 17.0981 24.4856 16.1186 22.628 14.8249C20.5307 13.322 19.1203 11.9928 18.3981 10.8045C17.6769 9.58078 17.332 8.14676 17.332 6.53889C17.332 4.61537 17.8478 3.04247 18.9144 1.85369C19.9805 0.664417 21.3222 0.0350613 23.0068 0.0350613C23.6941 0.0350613 24.3819 0.174918 25.0358 0.419668C25.6887 0.664417 26.3775 1.08399 27.0648 1.60894L27.8558 0.350225H28.6467V6.71323H27.8558C27.4426 4.86012 26.8241 3.42708 25.9638 2.44856C25.1046 1.46859 24.0729 0.979581 22.8005 0.979581C21.9058 0.979581 21.1493 1.25881 20.5307 1.85369C19.8768 2.44856 19.5678 3.14736 19.5678 3.9865C19.5678 5.31466 20.9085 6.85309 23.5914 8.67122C23.8737 8.86782 24.1304 9.04465 24.3585 9.20188C24.6585 9.40856 24.9093 9.58136 25.1046 9.72064C26.549 10.7696 27.615 11.8884 28.268 13.1821C28.9558 14.4408 29.3001 15.9443 29.3001 17.623C29.3001 19.7903 28.715 21.573 27.615 22.9366C26.4797 24.3002 25.0358 24.9646 23.2819 24.9646C22.5936 24.9646 21.9058 24.8252 21.1837 24.545C20.4963 24.3002 19.7742 23.8811 19.0515 23.3212L18.123 24.545H17.332ZM45.8756 24.545H46.5638L50.7245 24.545V23.532H48.5584L50.2779 17.3773H52.6508L54.9554 17.3773L56.502 23.532H54.7825V24.545H62.5551V23.532H61.3166L55.3332 0.455118H53.9233L52.6508 5.00047L47.4575 23.532L46.5638 23.532H45.8756V24.545ZM46.5638 8.11228H46.3914C45.9443 5.69975 45.3941 3.9865 44.7068 2.97254C44.019 1.95809 43.09 1.43363 41.9207 1.43363H41.6456V23.532H44.0873V24.545H34.2862V23.532H36.7283V1.43363H36.4532C35.2835 1.43363 34.3554 1.95809 33.6333 3.00702C32.9455 4.02098 32.3952 5.73471 31.9821 8.11228H31.0884L31.2943 0.455118H46.5638H47.0453L47.2516 8.11228H46.5638ZM0 24.545V23.532H1.71901V1.50356H0V0.455118H14.3401L14.5808 6.60833H13.7215C13.2396 4.61537 12.5518 3.28722 11.7608 2.55248C10.936 1.85369 9.62915 1.50356 7.80649 1.50356H6.56846V11.3989C7.77162 11.3989 8.63185 11.0493 9.11331 10.4204C9.62915 9.79008 9.90427 8.70619 9.97257 7.16776H10.7979V17.2025H9.97257C9.90427 15.4198 9.59476 14.1956 9.11331 13.5312C8.63185 12.832 7.77162 12.4828 6.56846 12.4828V23.532H7.84088C9.90427 23.532 11.383 23.007 12.3111 21.9581C13.274 20.9092 13.8591 19.126 14.1347 16.6081H15.0279L14.7188 24.545H0ZM52.6508 8.70619L50.6218 16.2589H52.6508H54.6798L52.7191 8.46144L52.6508 8.70619ZM72.5625 1.85369C71.9774 1.60894 71.2209 1.50356 70.3272 1.50356H70.1548V23.4965C70.2584 23.532 70.3616 23.532 70.4643 23.532C70.5679 23.566 70.7394 23.566 70.9457 23.566C71.5652 23.566 72.1155 23.4616 72.5625 23.2863C73.2155 23.0415 73.6969 22.6224 74.0757 22.0276C74.6947 21.0141 75.0037 19.2309 75.0037 16.713V9.16072C75.0037 6.04988 74.6603 3.9865 74.0064 2.97254C73.6635 2.48256 73.1811 2.09795 72.5625 1.85369ZM72.5625 24.4401C71.8404 24.5105 70.8774 24.545 69.777 24.545H69.3299H63.5863V23.532H65.3063V1.50356H63.5863V0.455118H69.3299C70.5679 0.455118 71.634 0.52456 72.5625 0.664417C72.9069 0.699382 73.2499 0.76931 73.5603 0.839724C74.6603 1.04902 75.6232 1.46859 76.4825 2.02802C77.7893 2.86716 78.7866 4.16084 79.4749 5.94401C80.1627 7.69223 80.5405 9.82504 80.5405 12.3075C80.5405 14.9298 80.1283 17.168 79.3369 19.0556C78.5459 20.9437 77.4115 22.3777 75.9327 23.3212C75.2789 23.7763 74.5223 24.0904 73.6635 24.2658C73.3535 24.3352 73.0091 24.4056 72.5625 24.4401ZM91.5118 1.04902C90.376 1.04902 89.5167 1.6439 89.0009 2.83268C88.485 4.02098 88.2099 5.94402 88.2099 8.53137V16.4333C88.2099 19.091 88.485 21.0486 89.0009 22.2378C89.5511 23.4261 90.376 24.021 91.5118 24.021C92.6801 24.021 93.5403 23.4261 94.0562 22.2378C94.572 21.0486 94.8128 19.091 94.8128 16.4333V8.53137C94.8128 5.94402 94.572 4.02098 94.0562 2.83268C93.5403 1.6439 92.6801 1.04902 91.5118 1.04902ZM91.5118 25C90.5484 25 89.5511 24.7553 88.5887 24.2308C87.6248 23.7413 86.7312 23.007 85.9053 22.063C84.8053 20.8038 83.98 19.4057 83.4641 17.8323C82.9483 16.2589 82.6732 14.4758 82.6732 12.4828C82.6732 10.4899 82.9483 8.70619 83.4641 7.13328C84.0144 5.62934 84.8053 4.19629 85.9053 2.93758C86.6968 1.99354 87.5909 1.29426 88.5538 0.76931C89.5167 0.279811 90.514 0.0350613 91.5118 0.0350613C92.543 0.0350613 93.5747 0.314775 94.5376 0.804274C95.535 1.29426 96.4286 1.99354 97.2196 2.93758C98.2857 4.19629 99.0771 5.62934 99.6273 7.13328C100.143 8.70619 100.384 10.4899 100.384 12.4828C100.384 14.4758 100.143 16.2589 99.6273 17.8323C99.1115 19.4057 98.2857 20.8038 97.2196 22.063C96.4286 23.007 95.535 23.7413 94.5376 24.2308C93.5403 24.7553 92.543 25 91.5118 25ZM112.601 0.221149C113.842 0.221149 114.92 0.276023 115.837 0.441132C116.215 0.441132 116.538 0.495035 116.807 0.604784C117.94 0.825253 118.911 1.2084 119.72 1.75666C121.015 2.57929 122.04 3.84043 122.74 5.6508C123.388 7.40532 123.766 9.54348 123.766 12.0114C123.766 14.589 123.388 16.8364 122.579 18.7012C121.823 20.6208 120.691 22.0461 119.18 22.9785C118.534 23.417 117.779 23.7458 116.915 23.9104C116.646 23.9657 116.267 24.0201 115.837 24.075C115.081 24.1852 114.165 24.1852 113.031 24.1852H113.031H112.601H106.883V23.1975H108.61V1.26328H106.883V0.221149H112.601ZM115.837 1.59252C115.243 1.37303 114.488 1.26328 113.625 1.26328H113.463V23.1426C113.571 23.1975 113.625 23.1975 113.733 23.1975H114.218C114.866 23.1975 115.406 23.1426 115.837 22.9236C116.485 22.7046 116.969 22.2656 117.348 21.662C117.94 20.6752 118.264 18.9207 118.264 16.3984V8.88596C118.264 5.76006 117.94 3.67629 117.239 2.68904C116.915 2.25004 116.485 1.86641 115.837 1.59252ZM125.868 24.1852V23.1975H127.595V1.26328H125.868V0.221149H140.161L140.43 6.30881H139.569C139.083 4.3343 138.382 2.96293 137.573 2.30492C136.764 1.59252 135.469 1.26328 133.688 1.26328H132.449V11.1334C133.634 11.078 134.499 10.7502 134.983 10.1471C135.469 9.48909 135.738 8.44697 135.793 6.91145H136.655V16.8913H135.793C135.738 15.0824 135.469 13.8756 134.983 13.2176C134.443 12.5048 133.634 12.1755 132.449 12.1755V23.1975H133.688C135.738 23.1975 137.195 22.6497 138.165 21.6081C139.083 20.566 139.729 18.8109 139.946 16.2887H140.862L140.538 24.1852H125.868Z" fill="#004071"/>
</svg>
